#tb 0: 1001/30000
#media_type 0: video
#codec_id 0: rawvideo
#dimensions 0: 128x128
#sar 0: 4/3
0,          1,          1,        1,    24576, 0xa590edbd
0,          2,          2,        1,    24576, 0x9ee7d9e3
0,          3,          3,        1,    24576, 0x5138e8e7
0,          4,          4,        1,    24576, 0x6bd678d1
0,          5,          5,        1,    24576, 0xd6281972
